<svg xmlns="http://www.w3.org/2000/svg" viewBox="0 0 32 32">
    <path d="M26.52 8.36a13 13 0 1 0-5.77 19.73l3.57.57a1 1 0 0 0 1.15-.83l.61-3.83a1 1 0 0 0-2-.31l-.45 2.87-2.87-.46a1 1 0 0 0-.54.07 11 11 0 1 1 6.18-6.63 1 1 0 1 0 1.89.64 13 13 0 0 0-1.77-11.82Z" />
    <path d="M20 16a4 4 0 1 0-4 4 4 4 0 0 0 4-4Zm-6 0a2 2 0 1 1 2 2 2 2 0 0 1-2-2Z" />
    <path d="M21.66 15a1 1 0 0 0 .33-.06 1 1 0 0 0 .61-1.27 7 7 0 0 0-4.27-4.27 1 1 0 0 0-.66 1.88 5.06 5.06 0 0 1 3 3.05 1 1 0 0 0 .99.67Zm-7.33 5.72a5.06 5.06 0 0 1-3.05-3 1 1 0 1 0-1.88.66 7 7 0 0 0 4.27 4.27 1 1 0 0 0 .33.06 1 1 0 0 0 .33-1.94Z" />
    <path d="M24.78 15H25a1 1 0 0 0 .75-1.19 10 10 0 0 0-7.53-7.53 1 1 0 0 0-.44 1.95 8 8 0 0 1 6 6 1 1 0 0 0 1 .77Zm-10.56 8.8a8 8 0 0 1-6-6 1 1 0 1 0-1.95.44 10 10 0 0 0 7.53 7.53.83.83 0 0 0 .22 0 1 1 0 0 0 .22-2Z" />
</svg>